<svg width="1440" height="2331" viewBox="0 0 1440 2331" fill="none" xmlns="http://www.w3.org/2000/svg">
<g clip-path="url(#clip0_1974_14286)">
<rect width="1440" height="2331" fill="#6A3383"/>
<g style="mix-blend-mode:overlay" opacity="0.1">
<path d="M386.568 730.189C486.584 557.935 513.533 356.999 462.4 164.43C411.282 -28.1647 288.247 -189.327 115.949 -289.406L81.648 -230.331C238.164 -139.419 349.936 7.00523 396.365 181.932C442.794 356.858 418.332 539.39 327.478 695.866C236.624 852.342 90.2387 964.054 -84.6753 1010.41C-259.589 1056.77 -442.136 1032.24 -598.651 941.33L-632.952 1000.41C-460.655 1100.48 -259.703 1127.51 -67.1469 1076.45C125.409 1025.4 286.553 902.442 386.568 730.189Z" fill="#F6F6F6"/>
<path d="M268.388 661.549C350.081 520.852 372.08 356.738 330.33 199.44C288.58 42.1424 188.081 -89.5041 47.3477 -171.249L13.0468 -112.174C271.001 37.6588 359.035 369.338 209.297 627.227C59.5601 885.115 -272.095 973.018 -530.049 823.185L-564.35 882.261C-423.617 964.006 -259.489 986.067 -102.203 944.38C55.0832 902.692 186.695 802.247 268.388 661.549Z" fill="#F6F6F6"/>
<path d="M150.207 592.898C281.021 367.6 204.101 77.7936 -21.2545 -53.1045L-55.5552 5.97079C137.227 117.948 203.023 365.842 91.1163 558.575C-20.7901 751.309 -268.666 817.006 -461.448 705.029L-495.749 764.104C-270.393 895.002 19.392 818.197 150.207 592.898Z" fill="#F6F6F6"/>
<path d="M32.0225 524.254C125.021 364.086 70.3494 158.105 -89.8594 65.0474L-124.16 124.123C3.45038 198.245 47.0077 362.353 -27.0678 489.931C-101.143 617.51 -265.239 661.002 -392.85 586.879L-427.151 645.955C-266.942 739.012 -60.9756 684.422 32.0225 524.254Z" fill="#F6F6F6"/>
<path d="M-530.037 823.154L-495.736 764.079C-753.69 614.246 -841.724 282.567 -691.987 24.6784C-542.249 -233.21 -210.594 -321.113 47.3603 -171.28L81.6611 -230.355C-59.0724 -312.101 -223.2 -334.162 -380.486 -292.475C-537.772 -250.787 -669.384 -150.342 -751.077 -9.64427C-832.77 131.053 -854.769 295.167 -813.019 452.465C-771.27 609.763 -670.77 741.409 -530.037 823.154Z" fill="#F6F6F6"/>
<path d="M-598.644 941.299L-564.343 882.224C-720.859 791.312 -832.631 644.888 -879.06 469.962C-925.489 295.035 -901.027 112.503 -810.173 -43.9724C-719.319 -200.448 -572.934 -312.161 -398.02 -358.52C-223.106 -404.88 -40.5594 -380.348 115.956 -289.436L150.257 -348.511C-22.0406 -448.591 -222.992 -475.617 -415.548 -424.56C-608.114 -373.543 -769.248 -250.549 -869.263 -78.295C-969.279 93.9588 -996.228 294.894 -945.095 487.464C-893.977 680.058 -770.942 841.22 -598.644 941.299Z" fill="#F6F6F6"/>
<path d="M-461.442 705L-427.141 645.924C-619.923 533.947 -685.719 286.053 -573.812 93.3197C-461.906 -99.4135 -214.03 -165.111 -21.248 -53.1335L13.0528 -112.209C-212.303 -243.107 -502.088 -166.301 -632.903 58.997C-763.717 284.295 -686.798 574.102 -461.442 705Z" fill="#F6F6F6"/>
</g>
<g filter="url(#filter0_f_1974_14286)">
<path d="M138.574 1061.65C215.991 1426.56 -38.5378 1325.67 -175.479 1229.61C-284.498 1170.19 -493.939 1003.95 -459.559 814.356C-416.583 577.368 -676.146 679.651 -1088.46 417.69C-1500.78 155.729 -1329.39 -36.687 -1332.47 -442.14C-1335.55 -847.592 -925.179 -493.985 -936.231 -213.959C-947.284 66.0681 -771.205 107.34 -119.538 190.863C532.13 274.386 41.8037 605.503 138.574 1061.65Z" fill="url(#paint0_linear_1974_14286)"/>
</g>
<g filter="url(#filter1_f_1974_14286)">
<path d="M316.165 -1193.61C211.473 -1641.17 526.287 -1517.49 696.781 -1399.7C832.055 -1326.85 1093.33 -1122.99 1056.24 -890.444C1009.88 -599.756 1325.43 -725.278 1838.05 -404.074C2350.66 -82.8715 2145.64 153.179 2160.25 650.483C2174.87 1147.79 1662.2 714.177 1668.27 370.709C1674.33 27.2412 1457.31 -23.3357 655.966 -125.617C-145.377 -227.898 447.03 -634.15 316.165 -1193.61Z" fill="url(#paint1_linear_1974_14286)"/>
</g>
</g>
<defs>
<filter id="filter0_f_1974_14286" x="-1863.28" y="-1123.58" width="2586.68" height="2941.08" filterUnits="userSpaceOnUse" color-interpolation-filters="sRGB">
<feFlood flood-opacity="0" result="BackgroundImageFix"/>
<feBlend mode="normal" in="SourceGraphic" in2="BackgroundImageFix" result="shape"/>
<feGaussianBlur stdDeviation="249.033" result="effect1_foregroundBlur_1974_14286"/>
</filter>
<filter id="filter1_f_1974_14286" x="-273.024" y="-2009.82" width="2961.74" height="3385.24" filterUnits="userSpaceOnUse" color-interpolation-filters="sRGB">
<feFlood flood-opacity="0" result="BackgroundImageFix"/>
<feBlend mode="normal" in="SourceGraphic" in2="BackgroundImageFix" result="shape"/>
<feGaussianBlur stdDeviation="250" result="effect1_foregroundBlur_1974_14286"/>
</filter>
<linearGradient id="paint0_linear_1974_14286" x1="34.7324" y1="1110.13" x2="-58.2677" y2="13.3563" gradientUnits="userSpaceOnUse">
<stop stop-color="#D01D5F"/>
<stop offset="1" stop-color="#ED8A23"/>
</linearGradient>
<linearGradient id="paint1_linear_1974_14286" x1="135.846" y1="-1277.98" x2="300.441" y2="511.762" gradientUnits="userSpaceOnUse">
<stop stop-color="#2F58AE"/>
<stop offset="1" stop-color="#7999DE"/>
</linearGradient>
<clipPath id="clip0_1974_14286">
<rect width="1440" height="2331" fill="white"/>
</clipPath>
</defs>
</svg>
